<svg width="50" height="12" viewBox="0 0 50 12" fill="none" xmlns="http://www.w3.org/2000/svg">
<path d="M49 6.75C49.4142 6.75 49.75 6.41421 49.75 6C49.75 5.58579 49.4142 5.25 49 5.25L49 6.75ZM0.469669 5.46967C0.176777 5.76257 0.176777 6.23744 0.469669 6.53033L5.24264 11.3033C5.53553 11.5962 6.01041 11.5962 6.3033 11.3033C6.5962 11.0104 6.5962 10.5355 6.3033 10.2426L2.06066 6L6.3033 1.75736C6.59619 1.46447 6.59619 0.989596 6.3033 0.696703C6.01041 0.403809 5.53553 0.40381 5.24264 0.696703L0.469669 5.46967ZM49 5.25L1 5.25L1 6.75L49 6.75L49 5.25Z" fill="black"/>
</svg>
