<svg width="50" height="12" viewBox="0 0 50 12" fill="none" xmlns="http://www.w3.org/2000/svg">
<path d="M1 5.25C0.585786 5.25 0.25 5.58579 0.25 6C0.25 6.41421 0.585786 6.75 1 6.75V5.25ZM49.5303 6.53033C49.8232 6.23744 49.8232 5.76256 49.5303 5.46967L44.7574 0.696699C44.4645 0.403806 43.9896 0.403806 43.6967 0.696699C43.4038 0.989593 43.4038 1.46447 43.6967 1.75736L47.9393 6L43.6967 10.2426C43.4038 10.5355 43.4038 11.0104 43.6967 11.3033C43.9896 11.5962 44.4645 11.5962 44.7574 11.3033L49.5303 6.53033ZM1 6.75H49V5.25H1V6.75Z" fill="black"/>
</svg>
