<svg width="33" height="8" viewBox="0 0 33 8" fill="none" xmlns="http://www.w3.org/2000/svg">
<path d="M32 4.5C32.2761 4.5 32.5 4.27614 32.5 4C32.5 3.72386 32.2761 3.5 32 3.5V4.5ZM0.646448 3.64645C0.451185 3.84171 0.451185 4.15829 0.646448 4.35355L3.82843 7.53553C4.02369 7.7308 4.34027 7.7308 4.53554 7.53553C4.7308 7.34027 4.7308 7.02369 4.53554 6.82843L1.70711 4L4.53554 1.17157C4.7308 0.976311 4.7308 0.659728 4.53554 0.464466C4.34027 0.269204 4.02369 0.269204 3.82843 0.464466L0.646448 3.64645ZM32 3.5L1 3.5V4.5L32 4.5V3.5Z" fill="white"/>
</svg>
