<svg width="20" height="21" viewBox="0 0 20 21" fill="none" xmlns="http://www.w3.org/2000/svg">
<path d="M19.9024 6.10231C19.8912 5.26256 19.734 4.43115 19.4379 3.64528C19.181 2.9824 18.7887 2.38039 18.286 1.87771C17.7834 1.37503 17.1813 0.982732 16.5185 0.725885C15.7427 0.434674 14.9231 0.277211 14.0947 0.260201C13.0281 0.212524 12.6899 0.199219 9.98226 0.199219C7.27464 0.199219 6.9276 0.199219 5.86872 0.260201C5.04065 0.277336 4.22148 0.434797 3.44606 0.725885C2.78308 0.982553 2.18098 1.37479 1.67827 1.87749C1.17557 2.38019 0.783334 2.9823 0.526666 3.64528C0.234872 4.42045 0.0777505 5.23981 0.0620911 6.06794C0.014414 7.13569 0 7.47386 0 10.1815C0 12.8891 -8.26098e-09 13.235 0.0620911 14.295C0.0787227 15.1244 0.235059 15.9427 0.526666 16.7199C0.783765 17.3827 1.17629 17.9845 1.67916 18.487C2.18203 18.9895 2.78419 19.3816 3.44717 19.6382C4.22046 19.9411 5.03977 20.1098 5.86983 20.1371C6.93758 20.1848 7.27575 20.1992 9.98337 20.1992C12.691 20.1992 13.038 20.1992 14.0969 20.1371C14.9253 20.1208 15.7449 19.9637 16.5207 19.6726C17.1834 19.4154 17.7852 19.023 18.2879 18.5204C18.7905 18.0177 19.1829 17.4159 19.4401 16.7532C19.7317 15.977 19.888 15.1588 19.9046 14.3283C19.9523 13.2616 19.9667 12.9235 19.9667 10.2147C19.9645 7.50712 19.9645 7.16341 19.9024 6.10231ZM9.97561 15.3018C7.14381 15.3018 4.84976 13.0077 4.84976 10.1759C4.84976 7.34414 7.14381 5.05009 9.97561 5.05009C11.3351 5.05009 12.6388 5.59013 13.6001 6.55142C14.5614 7.5127 15.1015 8.81648 15.1015 10.1759C15.1015 11.5354 14.5614 12.8392 13.6001 13.8005C12.6388 14.7617 11.3351 15.3018 9.97561 15.3018ZM15.3055 6.05574C14.6435 6.05574 14.1102 5.52132 14.1102 4.86049C14.1102 4.7036 14.1411 4.54825 14.2012 4.4033C14.2612 4.25835 14.3492 4.12665 14.4601 4.01571C14.5711 3.90477 14.7028 3.81677 14.8477 3.75673C14.9927 3.69669 15.148 3.66579 15.3049 3.66579C15.4618 3.66579 15.6172 3.69669 15.7621 3.75673C15.9071 3.81677 16.0388 3.90477 16.1497 4.01571C16.2606 4.12665 16.3486 4.25835 16.4087 4.4033C16.4687 4.54825 16.4996 4.7036 16.4996 4.86049C16.4996 5.52132 15.9652 6.05574 15.3055 6.05574Z" fill="white"/>
</svg>
