<svg width="19" height="18" viewBox="0 0 19 18" fill="none" xmlns="http://www.w3.org/2000/svg">
<path d="M16.9401 16.4886L12.398 11.8205C13.5565 10.6723 14.2742 9.08942 14.2742 7.34369C14.2742 3.8456 11.3947 1 7.85489 1C4.31508 1 1.43555 3.8456 1.43555 7.34369C1.43555 10.8418 4.31508 13.6874 7.85489 13.6874C9.40868 13.6874 10.8347 13.1385 11.9462 12.2277L16.4993 16.9073C16.5592 16.9692 16.6393 17 16.7197 17C16.7961 17 16.8722 16.9719 16.9315 16.9157C17.0532 16.8 17.0569 16.6088 16.9401 16.4886ZM7.85489 13.0832C4.65225 13.0832 2.04691 10.5086 2.04691 7.34369C2.04691 4.17879 4.65225 1.60416 7.85489 1.60416C11.0575 1.60416 13.6629 4.17879 13.6629 7.34369C13.6629 10.5086 11.0572 13.0832 7.85489 13.0832Z" fill="black" stroke="black" stroke-width="2"/>
</svg>
