<svg width="22" height="17" viewBox="0 0 22 17" fill="none" xmlns="http://www.w3.org/2000/svg">
<path d="M21.4098 2.17102C20.6291 2.50155 19.7891 2.7409 18.8816 2.82829C19.7851 2.31919 20.4706 1.48336 20.8154 0.495559C19.9713 0.974262 19.0362 1.33139 18.0376 1.51375C17.2253 0.704517 16.1039 0.199219 14.824 0.199219C12.391 0.199219 10.4255 2.08364 10.4255 4.41637C10.4255 4.7469 10.4572 5.07363 10.5484 5.37377C6.89883 5.19521 3.68519 3.51975 1.50181 0.978061C1.12933 1.60493 0.907428 2.32299 0.907428 3.10183C0.907428 4.56834 1.68805 5.85248 2.87286 6.60092C2.15564 6.57053 1.47011 6.39197 0.875728 6.06143C0.875728 6.09183 0.875728 6.09183 0.875728 6.12222C0.875728 8.15481 2.37358 9.86066 4.40241 10.2482C4.02993 10.3394 3.65349 10.3964 3.24931 10.3964C2.96796 10.3964 2.68662 10.366 2.43698 10.3052C2.99966 11.9806 4.62036 13.2078 6.52239 13.2344C5.02454 14.3704 3.1225 15.0276 1.06197 15.0276C0.717225 15.0276 0.344743 14.9972 0 14.9668C1.93373 16.1636 4.24391 16.8513 6.70467 16.8513C14.7843 16.8513 19.1828 10.4495 19.1828 4.88747C19.1828 4.70891 19.1828 4.53034 19.1828 4.34798C20.0704 3.7553 20.8154 3.04104 21.4098 2.17102Z" fill="white"/>
</svg>
